<?xml version="1.0" standalone="no"?>
<!DOCTYPE svg PUBLIC "-//W3C//DTD SVG 20010904//EN"
 "http://www.w3.org/TR/2001/REC-SVG-20010904/DTD/svg10.dtd">
<svg version="1.0" xmlns="http://www.w3.org/2000/svg"
 width="235.000000pt" height="218.000000pt" viewBox="0 0 235.000000 218.000000"
 preserveAspectRatio="xMidYMid meet">

<g transform="translate(0.000000,218.000000) scale(0.100000,-0.100000)"
fill="#f2f2f2" stroke="none">
<path d="M1227 1793 c-4 -3 -7 -19 -7 -35 0 -24 -4 -28 -30 -28 l-30 0 0 -220
0 -220 -35 0 c-33 0 -35 -2 -35 -35 l0 -35 -49 0 c-49 0 -50 -1 -53 -32 -3
-32 -4 -33 -55 -36 -51 -3 -53 -4 -53 -33 0 -26 -3 -29 -30 -29 -28 0 -30 -3
-30 -35 l0 -35 -69 0 -70 0 -3 33 c-3 28 -7 32 -35 35 -29 3 -33 7 -33 33 0
27 -3 29 -35 29 l-35 0 0 70 0 70 -30 0 -30 0 0 -206 0 -206 30 4 c28 4 30 3
30 -29 0 -31 2 -33 35 -33 33 0 35 -2 35 -35 0 -33 2 -35 35 -35 33 0 35 -2
35 -35 0 -33 2 -35 35 -35 33 0 35 -2 35 -35 0 -33 2 -35 35 -35 l35 0 0 -135
0 -135 65 0 65 0 0 35 c0 33 -2 35 -35 35 -33 0 -35 2 -35 35 0 33 2 35 35 35
32 0 35 2 35 29 0 26 4 30 33 33 28 3 32 7 35 36 3 29 6 32 37 32 31 0 34 -3
37 -32 3 -29 7 -33 36 -36 l32 -3 0 -100 0 -99 65 0 65 0 0 35 c0 33 -2 35
-35 35 l-35 0 0 135 0 135 35 0 c33 0 35 2 35 35 0 33 2 35 35 35 l35 0 0 50
0 50 35 0 c19 0 34 3 34 8 -1 4 -1 58 0 120 l1 112 35 0 c33 0 35 -2 35 -35 0
-32 2 -35 30 -35 l30 0 0 65 0 65 -65 0 -65 0 0 70 0 70 135 0 135 0 0 35 0
35 -105 0 -105 0 0 35 0 35 170 0 170 0 0 150 0 150 -30 0 c-28 0 -30 3 -30
35 l0 35 -268 0 c-148 0 -272 -3 -275 -7z m133 -128 c0 -33 -2 -35 -35 -35
-33 0 -35 2 -35 35 0 33 2 35 35 35 33 0 35 -2 35 -35z"/>
</g>
</svg>
